<svg xmlns="http://www.w3.org/2000/svg" version="1.1" xmlns:xlink="http://www.w3.org/1999/xlink" xmlns:svgjs="http://svgjs.com/svgjs" width="1080" height="450" preserveAspectRatio="none" viewBox="0 0 1080 450">
  <defs>
    <mask id="SvgjsMask1200">
      <rect width="1080" height="450" fill="#ffffff"></rect>
    </mask>
  </defs>
  <g mask="url(#SvgjsMask1200)" fill="none">
    <rect width="1080" height="450" x="0" y="0" fill="rgba(211, 6, 23, 1)"></rect>
    <path d="M0,394.16C99.669,403.372,202.602,500.243,288.932,449.587C374.312,399.488,347.13,266.65,377.744,172.51C404.134,91.358,457.969,19.69,456.48,-65.632C454.884,-157.077,423.164,-246.064,369.149,-319.869C312.279,-397.576,240.539,-485.585,144.457,-491.977C47.781,-498.409,-9.856,-377.448,-103.149,-351.292C-198.376,-324.593,-329.448,-416.327,-393.657,-341.106C-458.06,-265.657,-345.807,-149.932,-358.958,-51.61C-371.892,45.091,-489.476,118.527,-467.859,213.664C-446.661,306.956,-345.789,364.736,-256.531,399.171C-175.087,430.591,-86.924,386.126,0,394.16" fill="#9e0511"></path>
    <path d="M1080 785.62C1166.407 800.606 1253.356 881.091 1331.625 841.5350000000001 1408.069 802.9010000000001 1409.705 692.8 1428.85 609.315 1444.829 539.637 1447.243 469.304 1433.0529999999999 399.239 1419.4859999999999 332.252 1383.883 275.596 1349.3220000000001 216.631 1306.92 144.29000000000002 1286.469 43.80200000000002 1207.764 14.87700000000001 1129.439-13.908000000000015 1050.383 52.96199999999999 970.61 77.44999999999999 892.004 101.57999999999998 797.596 96.51299999999998 742.626 157.664 687.506 218.982 687.745 310.99 686.568 393.433 685.5029999999999 468.024 701.781 540.825 736.211 607.0029999999999 769.403 670.8009999999999 815.027 729.8489999999999 878.844 763.005 939.957 794.756 1012.144 773.851 1080 785.62" fill="#f8172a"></path>
  </g>
</svg>